<svg width="24" height="20" viewBox="0 0 24 20" fill="none" xmlns="http://www.w3.org/2000/svg">
<path d="M3.15789 13.6842C2.2807 13.6842 1.53509 13.3772 0.921053 12.7632C0.307018 12.1491 0 11.4035 0 10.5263C0 9.64912 0.307018 8.90351 0.921053 8.28947C1.53509 7.67544 2.2807 7.36842 3.15789 7.36842V5.26316C3.15789 4.68421 3.36404 4.1886 3.77632 3.77632C4.1886 3.36404 4.68421 3.15789 5.26316 3.15789H8.42105C8.42105 2.2807 8.72807 1.53509 9.34211 0.921053C9.95614 0.307018 10.7018 0 11.5789 0C12.4561 0 13.2018 0.307018 13.8158 0.921053C14.4298 1.53509 14.7368 2.2807 14.7368 3.15789H17.8947C18.4737 3.15789 18.9693 3.36404 19.3816 3.77632C19.7939 4.1886 20 4.68421 20 5.26316V7.36842C20.8772 7.36842 21.6228 7.67544 22.2368 8.28947C22.8509 8.90351 23.1579 9.64912 23.1579 10.5263C23.1579 11.4035 22.8509 12.1491 22.2368 12.7632C21.6228 13.3772 20.8772 13.6842 20 13.6842V17.8947C20 18.4737 19.7939 18.9693 19.3816 19.3816C18.9693 19.7939 18.4737 20 17.8947 20H5.26316C4.68421 20 4.1886 19.7939 3.77632 19.3816C3.36404 18.9693 3.15789 18.4737 3.15789 17.8947V13.6842ZM8.42105 11.5789C8.85965 11.5789 9.23246 11.4254 9.53947 11.1184C9.84649 10.8114 10 10.4386 10 10C10 9.5614 9.84649 9.1886 9.53947 8.88158C9.23246 8.57456 8.85965 8.42105 8.42105 8.42105C7.98246 8.42105 7.60965 8.57456 7.30263 8.88158C6.99561 9.1886 6.84211 9.5614 6.84211 10C6.84211 10.4386 6.99561 10.8114 7.30263 11.1184C7.60965 11.4254 7.98246 11.5789 8.42105 11.5789ZM14.7368 11.5789C15.1754 11.5789 15.5482 11.4254 15.8553 11.1184C16.1623 10.8114 16.3158 10.4386 16.3158 10C16.3158 9.5614 16.1623 9.1886 15.8553 8.88158C15.5482 8.57456 15.1754 8.42105 14.7368 8.42105C14.2982 8.42105 13.9254 8.57456 13.6184 8.88158C13.3114 9.1886 13.1579 9.5614 13.1579 10C13.1579 10.4386 13.3114 10.8114 13.6184 11.1184C13.9254 11.4254 14.2982 11.5789 14.7368 11.5789ZM7.36842 15.7895H15.7895V13.6842H7.36842V15.7895ZM5.26316 17.8947H17.8947V5.26316H5.26316V17.8947Z" fill="#A3A3A3"/>
</svg>
