<svg width="20" height="21" viewBox="0 0 20 21" fill="none" xmlns="http://www.w3.org/2000/svg">
<path d="M3.09961 20.1001V15.8001C2.14961 14.9334 1.41211 13.9209 0.887109 12.7626C0.362109 11.6043 0.0996094 10.3834 0.0996094 9.1001C0.0996094 6.6001 0.974609 4.4751 2.72461 2.7251C4.47461 0.975098 6.59961 0.100098 9.09961 0.100098C11.1829 0.100098 13.0288 0.712598 14.6371 1.9376C16.2454 3.1626 17.2913 4.75843 17.7746 6.7251L19.0746 11.8501C19.1579 12.1668 19.0996 12.4543 18.8996 12.7126C18.6996 12.9709 18.4329 13.1001 18.0996 13.1001H16.0996V16.1001C16.0996 16.6501 15.9038 17.1209 15.5121 17.5126C15.1204 17.9043 14.6496 18.1001 14.0996 18.1001H12.0996V20.1001H10.0996V16.1001H14.0996V11.1001H16.7996L15.8496 7.2251C15.4663 5.70843 14.6496 4.4751 13.3996 3.5251C12.1496 2.5751 10.7163 2.1001 9.09961 2.1001C7.16628 2.1001 5.51628 2.7751 4.14961 4.1251C2.78294 5.4751 2.09961 7.11676 2.09961 9.0501C2.09961 10.0501 2.30378 11.0001 2.71211 11.9001C3.12044 12.8001 3.69961 13.6001 4.44961 14.3001L5.09961 14.9001V20.1001H3.09961ZM8.09961 13.1001H10.0996L10.2496 11.8501C10.3829 11.8001 10.5038 11.7418 10.6121 11.6751C10.7204 11.6084 10.8163 11.5334 10.8996 11.4501L12.0496 11.9501L13.0496 10.2501L12.0496 9.5001C12.0829 9.36676 12.0996 9.23343 12.0996 9.1001C12.0996 8.96676 12.0829 8.83343 12.0496 8.7001L13.0496 7.9501L12.0496 6.2501L10.8996 6.7501C10.8163 6.66676 10.7204 6.59176 10.6121 6.5251C10.5038 6.45843 10.3829 6.4001 10.2496 6.3501L10.0996 5.1001H8.09961L7.94961 6.3501C7.81628 6.4001 7.69544 6.45843 7.58711 6.5251C7.47878 6.59176 7.38294 6.66676 7.29961 6.7501L6.14961 6.2501L5.14961 7.9501L6.14961 8.7001C6.11628 8.83343 6.09961 8.96676 6.09961 9.1001C6.09961 9.23343 6.11628 9.36676 6.14961 9.5001L5.14961 10.2501L6.14961 11.9501L7.29961 11.4501C7.38294 11.5334 7.47878 11.6084 7.58711 11.6751C7.69544 11.7418 7.81628 11.8001 7.94961 11.8501L8.09961 13.1001ZM9.09961 10.6001C8.68294 10.6001 8.32878 10.4543 8.03711 10.1626C7.74544 9.87093 7.59961 9.51676 7.59961 9.1001C7.59961 8.68343 7.74544 8.32926 8.03711 8.0376C8.32878 7.74593 8.68294 7.6001 9.09961 7.6001C9.51628 7.6001 9.87044 7.74593 10.1621 8.0376C10.4538 8.32926 10.5996 8.68343 10.5996 9.1001C10.5996 9.51676 10.4538 9.87093 10.1621 10.1626C9.87044 10.4543 9.51628 10.6001 9.09961 10.6001Z" fill="#A3A3A3" stroke="#A2A2A3" stroke-width="0.2" stroke-linejoin="bevel"/>
</svg>
